<?xml version="1.0" encoding="iso-8859-1"?>
<!-- Generator: Adobe Illustrator 19.0.0, SVG Export Plug-In . SVG Version: 6.00 Build 0)  -->
<svg version="1.1" id="Layer_1" xmlns="http://www.w3.org/2000/svg" xmlns:xlink="http://www.w3.org/1999/xlink" x="0px" y="0px"
	 viewBox="0 0 502 502" style="enable-background:new 0 0 502 502;" xml:space="preserve">
<g>
	<g>
		<path d="M417.5,332.5c-19.7,0-37.832,6.795-52.218,18.14l-25.711-25.711c-3.906-3.905-10.236-3.905-14.143,0
			c-3.905,3.905-3.905,10.237,0,14.143l25.711,25.711C339.795,379.168,333,397.3,333,417c0,46.593,37.906,84.5,84.5,84.5
			S502,463.593,502,417S464.094,332.5,417.5,332.5z M417.5,481.5c-35.565,0-64.5-28.935-64.5-64.5s28.935-64.5,64.5-64.5
			S482,381.435,482,417S453.065,481.5,417.5,481.5z"/>
		<path d="M213.929,272.429l-77.771,77.771C121.863,339.119,103.945,332.5,84.5,332.5C37.907,332.5,0,370.407,0,417
			s37.907,84.5,84.5,84.5S169,463.593,169,417c0-19.955-6.969-38.305-18.58-52.778l77.651-77.651c3.905-3.905,3.905-10.237,0-14.143
			C224.166,268.523,217.834,268.523,213.929,272.429z M149,417c0,35.565-28.935,64.5-64.5,64.5S20,452.565,20,417
			s28.935-64.5,64.5-64.5c13.925,0,26.822,4.45,37.375,11.982l-44.946,44.946c-3.905,3.905-3.905,10.237,0,14.143
			c1.953,1.953,4.512,2.929,7.071,2.929s5.119-0.976,7.071-2.929l45.115-45.115C144.231,389.217,149,402.562,149,417z"/>
		<path d="M260.5,245.857v-76.906c42.136-4.738,75-40.571,75-83.952c0-46.593-37.906-84.5-84.5-84.5
			c-46.593,0-84.5,37.907-84.5,84.5c0,43.036,32.347,78.635,74,83.824V249.5c0,1.805,0.485,3.493,1.321,4.955
			c0.487,1.131,1.184,2.193,2.107,3.116l55,55c1.953,1.953,4.512,2.929,7.071,2.929s5.118-0.976,7.071-2.929
			c3.905-3.905,3.905-10.237,0-14.143L260.5,245.857z M186.5,85c0-35.565,28.935-64.5,64.5-64.5s64.5,28.935,64.5,64.5
			s-28.935,64.5-64.5,64.5S186.5,120.565,186.5,85z"/>
		<path d="M222.02,46.108C209.797,55.228,202.5,69.767,202.5,85c0,5.523,4.477,10,10,10s10-4.477,10-10
			c0-9.086,4.184-17.419,11.479-22.863c4.427-3.303,5.337-9.568,2.035-13.995C232.712,43.715,226.445,42.805,222.02,46.108z"/>
		<path d="M256.193,56.97c4.005,0.736,7.735,2.295,11.088,4.634c1.743,1.216,3.737,1.8,5.713,1.8c3.158,0,6.266-1.493,8.21-4.279
			c3.16-4.529,2.05-10.763-2.479-13.923c-5.715-3.987-12.08-6.646-18.918-7.902c-5.429-1-10.645,2.596-11.642,8.028
			C247.167,50.76,250.761,55.972,256.193,56.97z"/>
	</g>
</g>
<g>
</g>
<g>
</g>
<g>
</g>
<g>
</g>
<g>
</g>
<g>
</g>
<g>
</g>
<g>
</g>
<g>
</g>
<g>
</g>
<g>
</g>
<g>
</g>
<g>
</g>
<g>
</g>
<g>
</g>
</svg>
